# xmcd
#
# Track frame offsets:
#	150
#	17365
#	35520
#	50077
#	67415
#	86827
#	102557
#	119647
#	134497
#	151745
#	169915
#	184462
#	201802
#	221239
#	236952
#	254039
#	280306
#
# Disc length: 3749 seconds
#
# Revision: 0
# Processed by: cddbd v1.5PL3 Copyright (c) Steve Scherf et al.
# Submitted via: audiograbber 1.83.01
#
DISCID=180ea311
DTITLE=Various Artist - Karaoke SC1009
DYEAR=1900
DGENRE=
TTITLE0=Martina Mcbride - When God Fearin' Women Get The Blue
TTITLE1=Trick Pony - On A Night Like This
TTITLE2=Jamie O'neal - When I Think About Angels
TTITLE3=Faith Hill - There You'll Be
TTITLE4=Jessica Andrews - Who I Am
TTITLE5=Cyndi Thomson - What I Really Meant To Say
TTITLE6=Carolyn Dawn Johnson - Complicated
TTITLE7=Dixie Chicks - If I Fall You're Going Down With Me
TTITLE8=Martina Mcbride (Vocal) - When God Fearin' Women Get The Blue
TTITLE9=Trick Pony (Vocal) - On A Night Like This
TTITLE10=Jamie O'neal (Vocal) - When I Think About Angels
TTITLE11=Faith Hill (Vocal) - There You'll Be
TTITLE12=Jessica Andrews (Vocal) - Who I Am
TTITLE13=Cyndi Thomson (Vocal) - What I Really Meant To Say
TTITLE14=Carolyn Dawn Johnson (Vocal) - Complicated
TTITLE15=Dixie Chicks (Vocal) - If I Fall You're Going Down With Me
TTITLE16=dATA - Data Track
EXTD=
EXTT0=
EXTT1=
EXTT2=
EXTT3=
EXTT4=
EXTT5=
EXTT6=
EXTT7=
EXTT8=
EXTT9=
EXTT10=
EXTT11=
EXTT12=
EXTT13=
EXTT14=
EXTT15=
EXTT16=
PLAYORDER=
